<svg xmlns="http://www.w3.org/2000/svg" width="512" height="512" viewBox="0 0 512 512" preserveAspectRatio="xMidYMid meet" role="img" aria-label="Yellow lightbulb share favicon">
  <title>Yellow lightbulb share favicon</title>
  <desc>A bold, extra-wide lightbulb favicon with a centered transparent share arrow cut out of the bulb. Transparent background.</desc>
  <defs>
    <mask id="cutout-yellow-fat">
      <rect width="512" height="512" fill="black"/>
      <path d="M256 6 C140 6 38 102 38 218 C38 300 70 350 110 390 C130 410 145 434 145 458 C145 479 159 494 178 494 L334 494 C353 494 367 479 367 458 C367 434 382 410 402 390 C442 350 474 300 474 218 C474 102 372 6 256 6 Z M160 458 L352 458 C357 458 361 462 361 467 L361 486 C361 500 349 512 335 512 L177 512 C163 512 151 500 151 486 L151 467 C151 462 155 458 160 458 Z" fill="white" fill-rule="evenodd"/>
      <path d="M138 343 C134 275 180 224 250 194 C286 178 318 172 357 171 L357 119 C357 112 365 109 370 114 L470 206 C476 212 476 220 470 226 L370 318 C365 323 357 320 357 313 L357 265 C326 265 298 271 274 284 C236 304 210 335 197 379 C195 387 188 391 181 389 C155 381 140 365 138 343 Z" fill="black"/>
    </mask>
  </defs>
  <rect width="512" height="512" fill="#E2B400" mask="url(#cutout-yellow-fat)"/>
</svg>
