<svg xmlns="http://www.w3.org/2000/svg" width="512" height="512" viewBox="0 0 512 512" preserveAspectRatio="xMidYMid meet" role="img" aria-label="Green lightbulb share favicon">
  <title>Green Lightbulb Share Favicon</title>
  <desc>A bold lightbulb favicon with a transparent curved share arrow cut out from the center. Transparent background.</desc>
  <defs>
    <mask id="cutout-green">
      <rect width="512" height="512" fill="black"/>
      <path d="M256 24
               C177 24 112 87 112 165
               C112 210 130 244 156 280
               C181 313 192 345 194 383
               C195 404 208 417 228 417
               L284 417
               C304 417 317 404 318 383
               C320 345 331 313 356 280
               C382 244 400 210 400 165
               C400 87 335 24 256 24 Z
               M192 424
               L320 424
               C327 424 332 429 332 436
               L332 467
               C332 491 313 504 288 504
               L224 504
               C199 504 180 491 180 467
               L180 436
               C180 429 185 424 192 424 Z" fill="white"/>
      <path d="M190 334
               C186 282 213 242 261 217
               C293 200 325 198 371 198
               L371 156
               C371 150 378 147 383 151
               L469 226
               C475 231 475 241 469 246
               L383 321
               C378 325 371 322 371 316
               L371 274
               C333 274 304 281 278 296
               C248 313 230 338 219 374
               C217 380 211 382 206 380
               C197 377 191 369 190 358
               Z" fill="black"/>
    </mask>
  </defs>
  <path d="M256 24
           C177 24 112 87 112 165
           C112 210 130 244 156 280
           C181 313 192 345 194 383
           C195 404 208 417 228 417
           L284 417
           C304 417 317 404 318 383
           C320 345 331 313 356 280
           C382 244 400 210 400 165
           C400 87 335 24 256 24 Z
           M192 424
           L320 424
           C327 424 332 429 332 436
           L332 467
           C332 491 313 504 288 504
           L224 504
           C199 504 180 491 180 467
           L180 436
           C180 429 185 424 192 424 Z"
        fill="#119E67" mask="url(#cutout-green)"/>
</svg>
