<svg xmlns="http://www.w3.org/2000/svg" width="512" height="512" viewBox="0 0 1024 1024" preserveAspectRatio="xMidYMid meet" role="img" aria-label="Insight sharing favicon, Emerald">
  <title>Insight Sharing Favicon - Emerald</title>
  <desc>Bold left-facing human head silhouette with an enlarged three-node share icon inside. Transparent background. 512 by 512 SVG.</desc>
  <path d="M 815 100
C 930 145 975 255 950 370
C 930 455 875 495 855 585
C 845 630 850 770 850 940
L 420 940
L 420 840
C 420 815 405 800 380 800
L 245 800
C 185 800 150 765 150 710
L 150 610
C 150 590 138 578 118 578
L 92 578
C 60 578 36 557 32 527
C 29 502 39 482 57 464
L 145 373
C 165 353 175 328 175 300
L 175 232
C 175 175 218 132 285 112
C 430 67 675 45 815 100 Z" fill="#0F8A5F"/>
  <g fill="none" stroke="#EEFFF7" stroke-width="82" stroke-linecap="round" stroke-linejoin="round">
    <line x1="430" y1="390" x2="750" y2="205"/>
    <line x1="430" y1="390" x2="750" y2="585"/>
  </g>
  <g fill="#EEFFF7">
    <circle cx="430" cy="390" r="92"/>
    <circle cx="750" cy="205" r="92"/>
    <circle cx="750" cy="585" r="92"/>
  </g>
  <g fill="#0F8A5F">
    <circle cx="430" cy="390" r="30"/>
    <circle cx="750" cy="205" r="30"/>
    <circle cx="750" cy="585" r="30"/>
  </g>
</svg>
